<?xml version="1.0" encoding="utf-8"?>
<!-- Generator: Adobe Illustrator 27.5.0, SVG Export Plug-In . SVG Version: 6.00 Build 0)  -->
<svg version="1.1" id="Layer_1" xmlns="http://www.w3.org/2000/svg" xmlns:xlink="http://www.w3.org/1999/xlink" x="0px" y="0px"
	 viewBox="0 0 1220 803.2" style="enable-background:new 0 0 1220 803.2;" xml:space="preserve">
<style type="text/css">
	.st0{fill:#F0500A;}
	.st1{fill:#1E1E1E;}
</style>
<circle class="st0" cx="350" cy="445.9" r="310.1"/>
<path class="st1" d="M350,788.1C161.4,788.1,7.8,634.6,7.8,445.9c0-188.7,153.5-342.2,342.2-342.2s342.2,153.5,342.2,342.2
	C692.2,634.6,538.7,788.1,350,788.1z M350,167.9c-153.3,0-278,124.7-278,278c0,153.3,124.7,278,278,278c153.3,0,278-124.7,278-278
	C628.1,292.6,503.3,167.9,350,167.9z"/>
<path class="st1" d="M1170.8,122.1C971.1,102.1,817.4,200,673,318.7c9.6,25.7,16,53,18.9,81.4c120-129.6,253.1-253.5,437.3-270.4
	l41.3-2.8h41.7L1170.8,122.1L1170.8,122.1z"/>
<path class="st1" d="M620.4,220.4c14.4,18.5,27.3,38.5,37.7,59.8c63.8-51.3,129.2-99.5,203.4-136c97.9-49.3,208.2-73.4,318.1-61.8
	C975.1,34.3,789.7,115.7,620.4,220.4L620.4,220.4z"/>
<path class="st1" d="M1010,32.3c-136-6-271.2,23.7-396.8,74.2c-25.3,10.4-50.5,21.7-75.4,34.5c-1.2,0.4-2,1.2-3.2,1.6
	c20.9,13.2,40.5,28.9,57.8,46.1c15.2-9.6,30.9-18.9,46.5-28.1c67.8-37.7,140.8-69,215.8-90.3c76.2-21.7,155.3-32.9,234.7-29.7
	C1063.3,36.7,1036.8,33.9,1010,32.3L1010,32.3z"/>
<path class="st1" d="M139,492.8c0.4-13.2-2-27.3-2-40.5c-0.4-14,1.2-28.5,3.6-42.5c2.4-10,5.6-21.7,9.2-31.3c2-6,6-14.4,8.8-20.1
	c2.8-6.8,12.8-21.7,16.4-28.5c8.8-11.6,16.4-24.1,26.1-34.9c28.1-32.9,71-52.6,113.9-56.2l2.4,4.4c-14,21.7-30.1,37.3-47.3,55
	c-2,1.6-5.2,4.8-6.8,6.8c-8.8,9.2-19.3,16.8-28.9,24.9c-4.4,3.2-11.2,8-15.2,11.6c-4.8,4-9.2,8.4-14,12.8l-12.4,14.4
	c-3.6,4-7.6,10.8-11.2,15.2c-14.4,21.3-24.5,44.9-30.1,70.2c-3.2,12.8-4.4,26.5-8.4,40.1L139,492.8L139,492.8L139,492.8z"/>
<path class="st1" d="M418.2,237.7c11.2,7.2,24.1,12.4,36.1,19.3c12.4,6.8,23.7,15.6,34.5,24.9c7.2,7.2,16,15.6,22.1,24.1
	c4.4,4.8,9.2,12.4,12.8,17.7c4.4,6,12,22.1,16,28.9c5.6,13.2,12.4,26.5,16.4,40.5c14,41.3,8.8,87.5-10,126.8h-4.8
	c-7.2-13.6-11.2-26.9-14.8-39.7c-3.6-11.2-6.8-22.1-8.8-33.7c-6.4-20.5-6.8-40.9-10-61c-1.2-6.4-2.4-12.4-4-18.5l-6-18.1
	c-1.6-5.2-5.2-12-7.6-17.3c-10.8-23.3-26.1-44.1-44.9-61.8c-9.6-9.2-20.5-17.3-30.1-27.7L418.2,237.7L418.2,237.7L418.2,237.7z"/>
<path class="st1" d="M496.5,590.3c-10.8,7.6-20.9,17.7-31.7,25.3c-11.2,8.8-23.7,15.6-36.5,22.1c-9.2,4-20.9,8.4-30.9,10.8
	c-6,2-15.2,3.6-21.3,4.8c-7.2,2-25.3,2.4-32.5,3.2c-14.4-0.4-29.3,0.8-43.7-0.4c-43.3-3.2-84.2-26.5-112.3-59l2-4.4
	c22.5-1.6,41.3,1.6,62.6,4.4c4.8,0.8,10,1.6,14.4,2.4c14.4,1.6,28.1,5.6,41.7,9.6c3.2,0.8,10.4,3.2,13.6,4.4
	c7.6,1.6,15.6,3.2,23.3,4.8c6.4,0.4,22.1,2,28.1,1.6c28.9,0.4,57.4-5.2,83.8-17.3c12.4-5.2,24.1-12,37.7-16.8L496.5,590.3
	L496.5,590.3L496.5,590.3z"/>
</svg>
