<?xml version="1.0" encoding="utf-8"?>
<!-- Generator: Adobe Illustrator 27.5.0, SVG Export Plug-In . SVG Version: 6.00 Build 0)  -->
<svg version="1.1" id="Layer_1" xmlns="http://www.w3.org/2000/svg" xmlns:xlink="http://www.w3.org/1999/xlink" x="0px" y="0px"
	 viewBox="0 0 587.7 300" style="enable-background:new 0 0 587.7 300;" xml:space="preserve">
<style type="text/css">
	.st0{fill:#1E1E1E;stroke:#FFFFFF;stroke-width:16;stroke-miterlimit:10;}
	.st1{fill:#F0500A;}
	.st2{fill:#F0500A;stroke:#FFFFFF;stroke-width:16;stroke-miterlimit:10;}
	.st3{fill:#FFFFFF;}
	.st4{fill:#1E1E1E;}
</style>
<path class="st0" d="M227.3,17c32.6,0.9,142-7.9,152.6-2.6c12.5,6.2-19.4,57.3-27.5,80.2c-9.5,26.7-13.4,68.6-32.9,107.1
	c-27.4,54.1-128.8,55.7-175.9,85.6l0,0c-28.4-29.9-128.8-31.5-122.3-85.6c4.7-38.6,26.9-80.4,34.2-107.1c6.2-22.9,6.3-74,22.7-80.2
	c14-5.3,117.8,3.5,151,2.6"/>
<g>
	<path class="st1" d="M78,74.9c8.8,0.5,14.7,0.7,17.8,0.7c0.7,0,1.3-0.2,1.8-0.7s0.7-1,0.7-1.8v-4.3h-11c-3.4,0-5.8-0.8-7.3-2.3
		c-1.5-1.5-2.3-4-2.3-7.3v-1.4c0-3.4,0.8-5.8,2.3-7.3s4-2.3,7.3-2.3h16.8V55H89.1c-1.9,0-2.9,1-2.9,2.9v1c0,1.9,1,2.9,2.9,2.9h8.6
		c3.1,0,5.4,0.7,6.9,2.2s2.2,3.8,2.2,6.9v2.4c0,3.1-0.7,5.4-2.2,6.9c-1.5,1.5-3.8,2.2-6.9,2.2c-1.6,0-3.4,0-5.2-0.1l-4.4-0.2
		c-3.3-0.2-6.6-0.4-10.1-0.7V74.9z"/>
	<path class="st1" d="M125.1,81.9h-8.6V55h-10.1v-6.7h28.8V55h-10.1V81.9z"/>
	<path class="st1" d="M154.4,81.9h-17.3v-6.7h4.3V55h-4.3v-6.7h17.3V55h-4.3v20.2h4.3V81.9z"/>
	<path class="st1" d="M158.7,48.3h20.2c3.4,0,5.8,0.8,7.3,2.3s2.3,4,2.3,7.3v4.3c0,2.7-0.4,4.7-1.3,6.2s-2.3,2.4-4.2,2.9l6,10.6
		h-9.4l-5.5-10.1h-6.7v10.1h-8.6C158.7,81.9,158.7,48.3,158.7,48.3z M179.8,57.9c0-1.9-1-2.9-2.9-2.9h-9.6v10.1h9.6
		c1.9,0,2.9-1,2.9-2.9C179.8,62.2,179.8,57.9,179.8,57.9z"/>
	<path class="st1" d="M201.9,75.1h17.5v6.7h-26.2V48.3h8.6V75.1z"/>
	<path class="st1" d="M238.6,81.9h-17.3v-6.7h4.3V55h-4.3v-6.7h17.3V55h-4.3v20.2h4.3V81.9z"/>
	<path class="st1" d="M272.2,81.9h-9.1l-11.5-20.2v20.2H243V48.3h9.1l11.5,20.2V48.3h8.6V81.9z"/>
	<path class="st1" d="M306.8,81.1c-7.5,0.8-14.4,1.2-20.6,1.2c-3.1,0-5.4-0.7-6.9-2.2s-2.2-3.8-2.2-6.9V57.9c0-3.4,0.8-5.8,2.3-7.3
		s4-2.3,7.3-2.3h17.3V55h-15.4c-1.9,0-2.9,1-2.9,2.9v15.4c0,0.7,0.2,1.3,0.6,1.8s1,0.7,1.8,0.7c3.7,0,7-0.1,10.1-0.2v-7h-6.2v-5.8
		h14.9C306.8,62.7,306.8,81.1,306.8,81.1z"/>
	<path class="st1" d="M63.6,132.5c8.8,0.5,14.7,0.7,17.8,0.7c0.7,0,1.3-0.2,1.8-0.7c0.4-0.4,0.7-1,0.7-1.8v-4.3h-11
		c-3.4,0-5.8-0.8-7.3-2.3c-1.5-1.5-2.3-4-2.3-7.3v-1.4c0-3.4,0.8-5.8,2.3-7.3c1.5-1.5,4-2.3,7.3-2.3h16.8v6.7H74.7
		c-1.9,0-2.9,1-2.9,2.9v1c0,1.9,1,2.9,2.9,2.9h8.6c3.1,0,5.4,0.7,6.9,2.2s2.2,3.8,2.2,6.9v2.4c0,3.1-0.7,5.4-2.2,6.9
		s-3.8,2.2-6.9,2.2c-1.6,0-3.4,0-5.2-0.1l-4.4-0.2c-3.3-0.2-6.6-0.4-10.1-0.7V132.5L63.6,132.5z"/>
	<path class="st1" d="M127,130.3c0,3.4-0.8,5.8-2.3,7.3s-4,2.3-7.3,2.3h-12c-3.4,0-5.8-0.8-7.3-2.3s-2.3-4-2.3-7.3V115
		c0-3.4,0.8-5.8,2.3-7.3s4-2.3,7.3-2.3h12c3.4,0,5.8,0.8,7.3,2.3s2.3,4,2.3,7.3V130.3z M118.4,115c0-1.9-1-2.9-2.9-2.9h-8.2
		c-1.9,0-2.9,1-2.9,2.9v15.4c0,1.9,1,2.9,2.9,2.9h8.2c1.9,0,2.9-1,2.9-2.9V115z"/>
	<path class="st1" d="M157.8,139c-7.1,0.6-13.1,1-17.8,1c-3.1,0-5.4-0.7-6.9-2.2s-2.2-3.8-2.2-6.9v-15.4c0-3.4,0.8-5.8,2.3-7.3
		s4-2.3,7.3-2.3h17.3v6.7h-15.4c-1.9,0-2.9,1-2.9,2.9v15.4c0,0.7,0.2,1.3,0.6,1.8c0.4,0.4,1,0.6,1.7,0.6s1.4,0,2.2,0s1.6,0,2.5-0.1
		c0.9,0,1.7-0.1,2.6-0.1c0.9,0,2-0.1,3.4-0.2c1.4-0.1,3.1-0.2,5.2-0.3L157.8,139L157.8,139z"/>
	<path class="st1" d="M187.5,139c-7.1,0.6-13.1,1-17.8,1c-3.1,0-5.4-0.7-6.9-2.2s-2.2-3.8-2.2-6.9v-15.4c0-3.4,0.8-5.8,2.3-7.3
		s4-2.3,7.3-2.3h17.3v6.7h-15.4c-1.9,0-2.9,1-2.9,2.9v15.4c0,0.7,0.2,1.3,0.6,1.8c0.4,0.4,1,0.6,1.7,0.6s1.4,0,2.2,0s1.6,0,2.5-0.1
		c0.9,0,1.7-0.1,2.6-0.1c0.9,0,2-0.1,3.4-0.2c1.4-0.1,3.1-0.2,5.2-0.3L187.5,139L187.5,139z"/>
	<path class="st1" d="M218,139.5h-26.6v-33.6H218v6.7h-18v6.5h14.2v6.7H200v7h18V139.5L218,139.5z"/>
	<path class="st1" d="M221.8,105.9H242c3.4,0,5.8,0.8,7.3,2.3c1.5,1.5,2.3,4,2.3,7.3v4.3c0,2.7-0.4,4.7-1.3,6.2s-2.3,2.4-4.2,2.9
		l6,10.6h-9.4l-5.5-10.1h-6.7v10.1h-8.6V105.9z M243,115.5c0-1.9-1-2.9-2.9-2.9h-9.6v10.1h9.6c1.9,0,2.9-1,2.9-2.9
		C243,119.8,243,115.5,243,115.5z"/>
	<path class="st1" d="M76.2,196.6c-7.1,0.6-13.1,1-17.8,1c-3.1,0-5.4-0.7-6.9-2.2s-2.2-3.8-2.2-6.9v-15.4c0-3.4,0.8-5.8,2.3-7.3
		s4-2.3,7.3-2.3h17.3v6.7H60.8c-1.9,0-2.9,1-2.9,2.9v15.4c0,0.7,0.2,1.3,0.7,1.8s1,0.6,1.7,0.6s1.4,0,2.2,0c0.8,0,1.6,0,2.5-0.1
		c0.9,0,1.7-0.1,2.6-0.1c0.9,0,2-0.1,3.4-0.2c1.4-0.1,3.1-0.2,5.2-0.3L76.2,196.6L76.2,196.6z"/>
	<path class="st1" d="M106.6,197.1H80v-33.6h26.6v6.7h-18v6.5h14.2v6.7H88.6v7h18V197.1z"/>
	<path class="st1" d="M139.8,197.1h-9.1l-11.5-20.2v20.2h-8.6v-33.6h9.1l11.5,20.2v-20.2h8.6V197.1z"/>
	<path class="st1" d="M161.8,197.1h-8.6v-26.9h-10.1v-6.7h28.8v6.7h-10.1V197.1z"/>
	<path class="st1" d="M175.3,163.5h20.2c3.4,0,5.8,0.8,7.3,2.3s2.3,4,2.3,7.3v4.3c0,2.7-0.4,4.7-1.3,6.2s-2.3,2.4-4.2,2.9l6,10.6
		h-9.4l-5.5-10.1h-6.7v10.1h-8.6V163.5L175.3,163.5z M196.4,173.1c0-1.9-1-2.9-2.9-2.9h-9.6v10.1h9.6c1.9,0,2.9-1,2.9-2.9V173.1
		L196.4,173.1z"/>
	<path class="st1" d="M236.5,197.1h-26.6v-33.6h26.6v6.7h-18v6.5h14.2v6.7h-14.2v7h18V197.1z"/>
</g>
<circle class="st2" cx="351.7" cy="175.2" r="77.3"/>
<path class="st3" d="M556.3,94.5c-49.8-5-88.1,19.4-124.1,49c2.4,6.4,4,13.2,4.7,20.3c29.9-32.3,63.1-63.2,109-67.4l10.3-0.7l10.4,0
	L556.3,94.5L556.3,94.5z"/>
<path class="st3" d="M419.1,119c3.6,4.6,6.8,9.6,9.4,14.9c15.9-12.8,32.2-24.8,50.7-33.9c24.4-12.3,51.9-18.3,79.3-15.4
	C507.5,72.6,461.3,92.9,419.1,119L419.1,119z"/>
<path class="st3" d="M516.2,72.1c-33.9-1.5-67.6,5.9-98.9,18.5c-6.3,2.6-12.6,5.4-18.8,8.6c-0.3,0.1-0.5,0.3-0.8,0.4
	c5.2,3.3,10.1,7.2,14.4,11.5c3.8-2.4,7.7-4.7,11.6-7c16.9-9.4,35.1-17.2,53.8-22.5c19-5.4,38.7-8.2,58.5-7.4
	C529.5,73.2,522.9,72.5,516.2,72.1L516.2,72.1z"/>
<path class="st4" d="M299.1,186.9c0.1-3.3-0.5-6.8-0.5-10.1c-0.1-3.5,0.3-7.1,0.9-10.6c0.6-2.5,1.4-5.4,2.3-7.8
	c0.5-1.5,1.5-3.6,2.2-5c0.7-1.7,3.2-5.4,4.1-7.1c2.2-2.9,4.1-6,6.5-8.7c7-8.2,17.7-13.1,28.4-14l0.6,1.1c-3.5,5.4-7.5,9.3-11.8,13.7
	c-0.5,0.4-1.3,1.2-1.7,1.7c-2.2,2.3-4.8,4.2-7.2,6.2c-1.1,0.8-2.8,2-3.8,2.9c-1.2,1-2.3,2.1-3.5,3.2l-3.1,3.6
	c-0.9,1-1.9,2.7-2.8,3.8c-3.6,5.3-6.1,11.2-7.5,17.5c-0.8,3.2-1.1,6.6-2.1,10L299.1,186.9L299.1,186.9L299.1,186.9z"/>
<path class="st4" d="M368.7,123.3c2.8,1.8,6,3.1,9,4.8c3.1,1.7,5.9,3.9,8.6,6.2c1.8,1.8,4,3.9,5.5,6c1.1,1.2,2.3,3.1,3.2,4.4
	c1.1,1.5,3,5.5,4,7.2c1.4,3.3,3.1,6.6,4.1,10.1c3.5,10.3,2.2,21.8-2.5,31.6l-1.2,0c-1.8-3.4-2.8-6.7-3.7-9.9
	c-0.9-2.8-1.7-5.5-2.2-8.4c-1.6-5.1-1.7-10.2-2.5-15.2c-0.3-1.6-0.6-3.1-1-4.6l-1.5-4.5c-0.4-1.3-1.3-3-1.9-4.3
	c-2.7-5.8-6.5-11-11.2-15.4c-2.4-2.3-5.1-4.3-7.5-6.9L368.7,123.3L368.7,123.3L368.7,123.3z"/>
<path class="st4" d="M388.2,211.2c-2.7,1.9-5.2,4.4-7.9,6.3c-2.8,2.2-5.9,3.9-9.1,5.5c-2.3,1-5.2,2.1-7.7,2.7
	c-1.5,0.5-3.8,0.9-5.3,1.2c-1.8,0.5-6.3,0.6-8.1,0.8c-3.6-0.1-7.3,0.2-10.9-0.1c-10.8-0.8-21-6.6-28-14.7l0.5-1.1
	c5.6-0.4,10.3,0.4,15.6,1.1c1.2,0.2,2.5,0.4,3.6,0.6c3.6,0.4,7,1.4,10.4,2.4c0.8,0.2,2.6,0.8,3.4,1.1c1.9,0.4,3.9,0.8,5.8,1.2
	c1.6,0.1,5.5,0.5,7,0.4c7.2,0.1,14.3-1.3,20.9-4.3c3.1-1.3,6-3,9.4-4.2L388.2,211.2L388.2,211.2L388.2,211.2z"/>
</svg>
