<?xml version="1.0" encoding="UTF-8"?>
<svg id="Layer_1" data-name="Layer 1" xmlns="http://www.w3.org/2000/svg" viewBox="0 0 255.01 208.47">
  <path d="m0,185.29c28.37,2.2,54.08-4.49,76.76-22.05-11.07-.71-21.17-4.08-30.08-10.72-8.92-6.65-15.06-15.31-18.74-25.98,7.94,1.46,15.52,1,23.17-.8-18.43-5.04-31.6-15.97-38.48-33.96-2.21-5.77-3.71-14.92-3.11-18.27,7.25,3.82,14.95,5.92,23.48,6.42-11.01-8.32-18.7-18.57-21.71-31.95-3.01-13.36-1.27-26,5.61-38.12,28.55,33.35,64.38,52.05,108.53,54.75-.21-1.42-.41-2.79-.63-4.15-3.83-23.84,9.94-48.17,32.72-56.63,20.84-7.75,39.67-3.74,56,11.43,1.18,1.1,2.15,1.37,3.71,1.01,6.95-1.61,13.74-3.69,20.22-6.65,3.62-1.65,7.13-3.56,10.87-5.44-1.99,5.98-4.92,11.3-8.74,16.14-3.85,4.88-8.42,8.97-13.71,12.38,10.06-.91,19.63-3.68,28.91-7.62l.22.3c-.48.75-.93,1.52-1.44,2.25-4.36,6.32-9.7,11.75-15.32,16.91-2.54,2.33-5.28,4.45-7.99,6.59-.67.53-.89,1.05-.9,1.87-.1,6.16,0,12.34-.45,18.48-.8,11.08-3.34,21.86-6.68,32.43-3.95,12.51-9.41,24.32-16.33,35.49-7.92,12.78-17.56,24.09-28.84,33.97-8.8,7.71-18.55,14.08-29,19.39-11.69,5.94-24,9.99-36.82,12.6-13.63,2.78-27.4,3.62-41.26,2.79-24.32-1.45-46.75-8.97-67.6-21.42-.8-.48-1.59-.97-2.39-1.45Z"/>
</svg>