<?xml version="1.0" encoding="UTF-8"?>
<svg id="Layer_1" data-name="Layer 1" xmlns="http://www.w3.org/2000/svg" viewBox="0 0 173.62 119.57">
  <path d="m84.05,0c8.78.22,14.92.23,21.05.56,10.14.54,20.28,1.2,30.41,1.99,5.82.45,11.62,1.2,17.42,1.95,2.94.38,5.9.63,8.67,2.01,4.88,2.43,7.98,6.27,8.96,11.53.88,4.75,1.35,9.59,1.77,14.41.53,5.98,1.06,11.98,1.17,17.98.16,8.16.22,16.34-.22,24.48-.47,8.68-1.43,17.33-2.46,25.97-.91,7.62-7.77,13.59-15.45,14.15-4.33.32-8.63,1.09-12.96,1.53-5.36.54-10.73,1.01-16.11,1.39-7.32.52-14.65,1.08-21.98,1.33-8.12.28-16.26.36-24.38.28-6.63-.07-13.27-.41-19.89-.8-7.53-.44-15.06-.95-22.58-1.65-6.85-.64-13.67-1.55-20.5-2.37-7.01-.83-13.26-7.24-13.93-14.23-.81-8.45-1.79-16.89-2.41-25.35-.58-7.97-.9-15.96-.29-23.97.43-5.74.51-11.51,1.01-17.24.47-5.36,1.21-10.7,1.99-16.02.79-5.37,6.36-12.16,14.17-12.93,7.67-.75,15.3-1.89,22.97-2.61,6.48-.62,12.99-.97,19.49-1.3,8.9-.46,17.81-.8,24.09-1.07Zm-13.26,59.84c.07,1.33.16,2.28.16,3.23-.03,7.46-.08,14.91-.12,22.37-.02,3.24,2.62,5.26,5.69,4.15,1.41-.5,2.69-1.43,3.92-2.33,6.51-4.72,12.97-9.5,19.47-14.23,4.05-2.95,8.15-5.84,12.23-8.75,2.33-1.67,3.1-3.94,1.87-6.11-.49-.86-1.31-1.6-2.13-2.2-11.24-8.15-22.5-16.26-33.76-24.39-1.65-1.19-3.42-1.49-5.26-.56-1.75.89-2.09,2.54-2.09,4.33,0,8.29,0,16.57,0,24.48Z"/>
</svg>