<?xml version="1.0" encoding="UTF-8"?>
<svg id="Layer_1" data-name="Layer 1" xmlns="http://www.w3.org/2000/svg" viewBox="0 0 55.82 36.21">
  <defs>
    <style>
      .cls-1 {
        fill: #fff;
      }
    </style>
  </defs>
  <path class="cls-1" d="m55.8.13c-2.24,4.13-4.42,8.15-6.6,12.16-.85,1.57-1.69,3.15-2.58,4.7-.4.69-.4,1.27-.01,1.98,2.94,5.41,5.85,10.83,8.77,16.25.13.24.24.5.45.94-2.87,0-5.56-.13-8.24.04-1.92.13-2.93-.61-3.77-2.27-2.44-4.82-5.02-9.57-7.59-14.33-.61-1.13-.64-2.06.01-3.23,2.71-4.87,5.34-9.78,7.95-14.7.59-1.11,1.25-1.64,2.6-1.59,2.49.1,4.99-.05,7.49-.08.48,0,.97.08,1.54.13Z"/>
  <path class="cls-1" d="m37.61,36.12c-3.35,0-6.58.06-9.8-.06-.55-.02-1.28-.65-1.58-1.19-2.83-5.18-5.58-10.41-8.37-15.61-.5-.93-.45-1.73.08-2.67,2.74-4.95,5.43-9.92,8.07-14.92.59-1.12,1.28-1.63,2.62-1.58,2.45.1,4.91-.03,7.37-.05.49,0,.98.05,1.64.08-.61,1.12-1.16,2.12-1.7,3.12-2.52,4.64-5.02,9.29-7.58,13.91-.42.76-.23,1.29.13,1.95,2.98,5.48,5.94,10.97,8.91,16.46.07.13.11.29.21.57Z"/>
  <path class="cls-1" d="m20.02.28c-.83,1.55-1.65,3.08-2.48,4.6-2.16,3.98-4.3,7.98-6.49,11.94-.51.91-.45,1.62.05,2.52,2.86,5.16,5.65,10.36,8.46,15.55.17.32.29.67.54,1.26-.94,0-1.7,0-2.47,0-2.33,0-4.66-.03-6.99,0-.9.01-1.44-.3-1.87-1.11C6,29.79,3.2,24.54.37,19.32c-.49-.9-.5-1.66-.02-2.56C3.21,11.5,6.03,6.21,8.88.96c.19-.35.64-.78.98-.79,3.24-.07,6.49-.07,9.73-.08.11,0,.22.09.42.18Z"/>
</svg>