<?xml version="1.0" encoding="UTF-8"?>
<svg id="Layer_1" data-name="Layer 1" xmlns="http://www.w3.org/2000/svg" viewBox="0 0 392.83 391.37">
  <path d="m392.77,198.32c0,42.74.03,85.48,0,128.23-.03,36.53-28.38,64.78-64.98,64.79-87.49.03-174.97.04-262.46.03C28.17,391.37,0,363.22,0,326.16,0,238.92.01,151.69.03,64.45.03,28.46,28.53.04,64.59.03,152.46.02,240.32-.01,328.18,0c30.16,0,56.18,20.36,62.77,49.25,1.21,5.31,1.77,10.88,1.79,16.33.14,44.24.08,88.48.08,132.73h-.05Zm-34.79-2.63c0-22.75.08-45.5-.06-68.25-.03-5.6-.26-11.3-1.29-16.78-8.43-45.04-45.89-76.04-91.72-76.08-45.75-.04-91.5-.03-137.25.03-4.24,0-8.51.21-12.71.77-46.15,6.08-80.21,44.87-80.28,91.49-.07,45.87-.08,91.75.06,137.62.02,5.96.53,12.03,1.7,17.87,8.83,43.83,46.15,74.35,90.85,74.42,46,.07,92,.04,138-.02,4.24,0,8.52-.21,12.71-.8,46.49-6.45,79.88-44.73,79.99-91.65.05-22.87,0-45.75,0-68.62Z"/>
  <path d="m330.25,195.71c0,22.75.03,45.49,0,68.24-.06,37.03-28.25,65.16-65.37,65.18-45.74.03-91.49.04-137.23,0-32.19-.03-58.22-21.55-64.2-53.11-.74-3.9-1.01-7.95-1.01-11.93-.07-45.62-.07-91.24-.03-136.86.03-36.46,28.44-64.94,64.91-64.99,46.12-.07,92.24-.07,138.36,0,36.09.06,64.42,28.37,64.56,64.47.09,23,.02,45.99.02,68.99Zm-216.7.05c.05,45.52,37.29,82.46,83.08,82.42,45.51-.05,82.5-37.07,82.48-82.55-.02-45.6-37.19-82.51-82.99-82.42-45.49.09-82.62,37.22-82.57,82.55Zm169.05-67.49c11.06.04,19.85-8.58,19.96-19.57.11-11.07-8.9-20.14-19.93-20.08-10.87.07-19.84,9.04-19.85,19.86-.02,10.9,8.85,19.74,19.83,19.78Z"/>
  <path d="m251.37,195.57c.03,30.43-24.54,54.94-55.06,54.92-30.27-.02-54.93-24.53-55.03-54.69-.1-30.23,24.73-54.94,55.18-54.92,30.34.02,54.88,24.47,54.91,54.69Z"/>
</svg>