<?xml version="1.0" encoding="UTF-8"?>
<svg id="Layer_1" data-name="Layer 1" xmlns="http://www.w3.org/2000/svg" viewBox="0 0 347.11 346.98">
  <path d="m294.94,346.98h-67.07v-130.91h57.46v-58.24h-57.45c0-8.69-.31-17.11.1-25.49.31-6.42,5.19-13.08,13.37-12.78,13.65.49,27.34.13,41.01.13.98,0,1.96,0,3.02,0v-58.07c-.76-.04-1.38-.1-2.01-.1-15.33,0-30.67-.07-46,.04-8.78.06-17.08,2.42-24.81,6.45-13.12,6.83-22.84,17.15-29.7,30.16-6.42,12.17-9.75,25.1-9.33,38.95.18,5.91.03,11.82.03,17.73,0,.98,0,1.96,0,3.19h-42.48c-.08.76-.18,1.29-.18,1.83-.01,18.01.02,36.02-.05,54.03,0,2.17,1.07,2.3,2.75,2.29,12.19-.05,24.38-.04,36.58-.05,1.07,0,2.14,0,3.39,0v130.84H52.16c-.93-.34-1.83-.84-2.78-1-9.06-1.47-17.22-5.07-24.48-10.61C8.83,323.13.06,307.04.05,286.63.01,211.72.12,136.81,0,61.89c-.02-13.32,3.3-25.43,11.03-36.22C19.08,14.44,29.65,6.51,42.99,2.5c2.86-.86,5.75-1.67,8.62-2.5h243.33c1.21.37,2.41.76,3.62,1.1,3.08.87,6.26,1.49,9.24,2.62,9.74,3.67,17.94,9.54,24.74,17.46,8.99,10.48,14.4,22.56,14.43,36.33.2,77.03.17,154.07-.04,231.1-.02,5.95-1.11,12.22-3.19,17.78-7.53,20.16-21.74,33.42-42.78,38.95-2.01.53-4.01,1.1-6.02,1.65Z"/>
</svg>